PathFileType	4	(x/y/z)	S01_P20_T04
DataRate	CameraRate	NumFrames	NumMarkers	Units	OrigDataRate	OrigDataStartFrame	OrigNumFrames
240	240	6	51	mm	240	1	406
Frame#	Time	Sternum			R.Acromium			L.Acromium			Top.Head			R.ASIS			L.ASIS			R.PSIS			L.PSIS			R.Great.Tro			L.Great.Tro			R.Iliac.Crest			L.Iliac.Crest			V.Sacral			R.Thigh.Upper.Post			R.Thigh.Lower.Ant			R.Thigh.Lower.Post			R.Thigh.Upper.Ant			R.Knee.Lat			R.Knee.Med			R.Shank.Upper.Post			R.Shank.Lower.Ant			R.Shank.Lower.Post			R.Shank.Upper.Ant			R.Ankle.Lat			R.Ankle.Med			R.Heel.Upper			R.Heel.Med			R.Heel.Lat			R.Toe.Lat			R.Toe.Med			R.Toe.Tip			L.Thigh.Upper.Post			L.Thigh.Lower.Ant			L.Thigh.Lower.Post			L.Thigh.Upper.Ant			L.Knee.Lat			L.Knee.Med			L.Shank.Upper.Post			L.Shank.Lower.Ant			L.Shank.Lower.Post			L.Shank.Upper.Ant			L.Ankle.Lat			L.Ankle.Med			L.Heel.Upper			L.Heel.Med			L.Heel.Lat			L.Toe.Lat			L.Toe.Med			L.Toe.Tip			Cervical.Spine			Back			
		X1	Y1	Z1	X2	Y2	Z2	X3	Y3	Z3	X4	Y4	Z4	X5	Y5	Z5	X6	Y6	Z6	X7	Y7	Z7	X8	Y8	Z8	X9	Y9	Z9	X10	Y10	Z10	X11	Y11	Z11	X12	Y12	Z12	X13	Y13	Z13	X14	Y14	Z14	X15	Y15	Z15	X16	Y16	Z16	X17	Y17	Z17	X18	Y18	Z18	X19	Y19	Z19	X20	Y20	Z20	X21	Y21	Z21	X22	Y22	Z22	X23	Y23	Z23	X24	Y24	Z24	X25	Y25	Z25	X26	Y26	Z26	X27	Y27	Z27	X28	Y28	Z28	X29	Y29	Z29	X30	Y30	Z30	X31	Y31	Z31	X32	Y32	Z32	X33	Y33	Z33	X34	Y34	Z34	X35	Y35	Z35	X36	Y36	Z36	X37	Y37	Z37	X38	Y38	Z38	X39	Y39	Z39	X40	Y40	Z40	X41	Y41	Z41	X42	Y42	Z42	X43	Y43	Z43	X44	Y44	Z44	X45	Y45	Z45	X46	Y46	Z46	X47	Y47	Z47	X48	Y48	Z48	X49	Y49	Z49	X50	Y50	Z50	X51	Y51	Z51	

1	0	NaN	NaN	NaN	-1536	1529.9	477.9	-1576	1554.6	153.09	-1566.6	1857.9	323.55	NaN	NaN	NaN	NaN	NaN	NaN	NaN	NaN	NaN	NaN	NaN	NaN	-1590.3	976.69	521.86	-1584.6	986.72	93.66	-1580.3	1124.1	508.26	-1596.1	1117.4	105.54	-1740.3	1036.8	291.7	-1635	676.73	489.9	NaN	NaN	NaN	-1641.9	588.76	468.18	-1564.4	682.23	485.43	-1640.4	521.09	457.08	NaN	NaN	NaN	-1730.9	376.82	473.13	-1695	280.71	429.64	-1757	311.69	459.39	-1680	348.73	449.16	-1802.4	110.04	415.51	-1767.4	114.98	325.12	-1871.7	86.029	354.57	-1857.3	52.964	328.91	-1867.8	56.075	391.93	-1680	41.656	464.96	-1641.7	46.058	342.23	NaN	NaN	NaN	-1526	698.45	111.68	-1421.8	657.36	102.37	-1485.2	617.63	131.4	-1470.6	738	85.267	-1403.8	557.94	121.32	NaN	NaN	NaN	-1404.9	412.8	102.61	-1313.3	351.37	120.11	-1375.6	340.38	103.74	-1341	422.87	114	-1301.3	130.3	136.49	-1275	155.7	232.16	-1351.6	74.682	186.46	-1331.5	56.533	221.21	-1329.6	51.678	159.16	-1137.1	113.63	114.89	-1117.8	143.25	232.72	-1066.3	175.12	177.31	-1649.2	1600.2	328.12	-1740.3	1289	334.45
2	0.0041667	NaN	NaN	NaN	-1531.3	1528.8	477.41	-1571.1	1553.4	152.63	-1561.7	1856.9	323.15	NaN	NaN	NaN	NaN	NaN	NaN	NaN	NaN	NaN	NaN	NaN	NaN	-1585.1	975.76	521.61	-1579.3	985.55	93.442	-1575.3	1123	508.02	-1590.9	1116.2	105.16	-1735.2	1035.6	291.33	-1631.2	676.2	489.74	NaN	NaN	NaN	-1639.3	588.67	467.94	-1560.4	681.43	485.22	-1637	520.36	456.99	NaN	NaN	NaN	-1728.9	376.82	472.94	NaN	NaN	NaN	-1755.1	311.8	459.28	-1677.8	348.4	449.08	-1802.2	110.46	415.48	-1767.1	115.27	325.06	-1871.4	86.605	354.42	-1857.1	53.534	328.75	-1867.6	56.667	391.76	-1679.6	41.551	464.74	-1641.5	46.128	342.22	NaN	NaN	NaN	-1520.1	697.57	111.47	-1415.8	656.66	102.67	-1479.3	616.8	131.31	-1464.7	737.19	85.208	-1398.1	557	121.51	NaN	NaN	NaN	-1399.2	411.75	102.89	-1307.3	350.53	120.57	-1369.8	339.42	104.07	-1335.2	421.95	114.31	-1294.8	129.47	137.24	-1268.9	155.08	232.81	-1344.9	73.679	187.28	-1324.8	55.701	222.04	-1322.9	50.7	160.03	-1130.6	113.42	115.64	-1111.3	143.32	233.42	-1060	175.31	177.99	-1644.5	1599.1	327.62	-1735.4	1287.8	333.98
3	0.0083333	NaN	NaN	NaN	-1526.4	1527.7	476.9	-1566	1552.2	152.14	-1556.7	1855.8	322.72	NaN	NaN	NaN	NaN	NaN	NaN	NaN	NaN	NaN	NaN	NaN	NaN	-1579.7	974.78	521.34	-1573.7	984.33	93.213	-1570	1121.9	507.75	-1585.4	1114.9	104.77	-1729.8	1034.4	290.94	-1627.2	675.64	489.56	NaN	NaN	NaN	-1636.5	588.53	467.7	-1556.3	680.61	484.99	-1633.5	519.6	456.9	-1622.6	523.64	313.41	-1726.7	376.82	472.75	NaN	NaN	NaN	-1753.1	311.92	459.16	-1675.5	348.06	449.01	-1801.9	110.94	415.45	-1766.7	115.59	325	-1871.2	87.241	354.26	-1856.8	54.161	328.58	-1867.4	57.313	391.59	-1679.2	41.45	464.51	-1641.3	46.198	342.21	NaN	NaN	NaN	-1513.9	696.67	111.27	-1409.6	655.94	103.01	-1473.2	615.94	131.23	-1458.5	736.36	85.186	-1392.2	556.03	121.71	NaN	NaN	NaN	-1393.2	410.65	103.19	-1301.1	349.62	121.05	-1363.8	338.4	104.42	-1329.1	420.97	114.65	-1288.3	128.57	138.02	-1262.6	154.37	233.49	-1338.1	72.628	188.14	-1318	54.812	222.89	-1316	49.673	160.93	-1124.1	113.08	116.43	-1104.8	143.24	234.17	-1053.6	175.34	178.71	-1639.6	1597.9	327.09	-1730.2	1286.4	333.49
4	0.0125	NaN	NaN	NaN	-1521.4	1526.5	476.36	-1560.7	1551	151.63	-1551.6	1854.8	322.27	NaN	NaN	NaN	NaN	NaN	NaN	NaN	NaN	NaN	NaN	NaN	NaN	-1574	973.75	521.04	-1568	983.08	92.974	-1564.6	1120.8	507.48	-1579.7	1113.6	104.36	-1724.2	1033.1	290.53	-1623	675.05	489.37	NaN	NaN	NaN	-1633.4	588.34	467.46	-1551.9	679.76	484.74	-1629.8	518.8	456.8	-1619.3	523.12	313.29	-1724.3	376.84	472.55	NaN	NaN	NaN	-1751	312.07	459.03	-1673	347.72	448.93	-1801.7	111.5	415.43	-1766.3	115.95	324.94	-1870.9	87.943	354.1	-1856.5	54.852	328.4	-1867.2	58.019	391.41	-1678.9	41.355	464.3	-1641	46.27	342.2	NaN	NaN	NaN	-1507.5	695.74	111.07	-1403.1	655.2	103.39	-1466.8	615.04	131.15	-1452.1	735.51	85.208	-1386.1	555.02	121.93	NaN	NaN	NaN	-1387.1	409.52	103.51	-1294.8	348.61	121.56	-1357.6	337.32	104.81	-1323	419.91	115.03	-1281.8	127.59	138.83	-1256.3	153.55	234.2	-1331.4	71.537	189.01	-1311.3	53.87	223.77	-1309.3	48.605	161.84	-1117.5	112.59	117.25	-1098.3	142.97	234.96	-1047.2	175.17	179.49	-1634.6	1596.8	326.53	-1725	1285.1	332.98
5	0.016667	NaN	NaN	NaN	-1516.2	1525.4	475.8	-1555.3	1549.7	151.08	-1546.3	1853.7	321.78	NaN	NaN	NaN	NaN	NaN	NaN	NaN	NaN	NaN	NaN	NaN	NaN	-1568.2	972.7	520.71	-1562.1	981.81	92.726	-1559.1	1119.6	507.19	-1573.9	1112.3	103.94	-1718.4	1031.8	290.09	-1618.7	674.45	489.17	NaN	NaN	NaN	-1630.2	588.1	467.23	-1547.4	678.89	484.48	-1625.9	517.99	456.7	-1615.9	522.56	313.16	-1721.9	376.87	472.35	NaN	NaN	NaN	-1748.8	312.23	458.89	-1670.5	347.39	448.87	-1801.4	112.12	415.4	-1765.8	116.36	324.88	-1870.6	88.717	353.94	-1856.3	55.612	328.22	-1867	58.79	391.22	-1678.6	41.268	464.09	-1640.8	46.341	342.19	NaN	NaN	NaN	-1500.9	694.79	110.89	-1396.4	654.45	103.82	-1460.1	614.13	131.07	-1445.5	734.66	85.283	-1379.8	553.98	122.17	NaN	NaN	NaN	-1380.9	408.35	103.86	-1288.5	347.52	122.1	-1351.4	336.2	105.23	-1316.7	418.78	115.44	-1275.4	126.55	139.66	-1250.1	152.62	234.92	-1324.9	70.419	189.91	-1304.7	52.88	224.65	-1302.7	47.505	162.76	-1111.1	111.91	118.12	-1091.9	142.49	235.79	-1040.9	174.75	180.3	-1629.4	1595.6	325.93	-1719.5	1283.7	332.44
6	0.020833	NaN	NaN	NaN	-1510.9	1524.2	475.21	-1549.8	1548.4	150.51	-1540.9	1852.6	321.27	NaN	NaN	NaN	NaN	NaN	NaN	NaN	NaN	NaN	NaN	NaN	NaN	-1562.1	971.61	520.36	-1556	980.53	92.469	-1553.4	1118.4	506.9	-1567.9	1110.9	103.51	-1712.5	1030.5	289.63	-1614.3	673.83	488.95	NaN	NaN	NaN	-1626.7	587.8	466.99	-1542.7	678.01	484.21	-1622	517.16	456.61	-1612.3	521.99	313.04	-1719.3	376.91	472.15	NaN	NaN	NaN	-1746.5	312.42	458.75	-1667.8	347.06	448.81	-1801	112.84	415.37	-1765.4	116.82	324.81	-1870.2	89.572	353.78	-1856	56.451	328.04	-1866.8	59.635	391.04	-1678.4	41.192	463.89	-1640.5	46.412	342.19	NaN	NaN	NaN	-1494.1	693.83	110.72	-1389.6	653.69	104.29	-1453.4	613.2	131.01	-1438.6	733.81	85.414	-1373.4	552.92	122.43	NaN	NaN	NaN	-1374.6	407.15	104.23	-1282.1	346.33	122.66	-1345.1	335.02	105.69	-1310.3	417.58	115.88	-1269.1	125.43	140.5	-1244	151.58	235.67	-1318.5	69.283	190.8	-1298.4	51.847	225.53	-1296.3	46.384	163.68	-1104.8	111.03	119.01	-1085.6	141.76	236.66	-1034.7	174.07	181.17	-1624.1	1594.4	325.31	-1714	1282.3	331.89
